<svg id="visual" viewBox="0 0 1920 1080" width="1920" height="1080" xmlns="http://www.w3.org/2000/svg" xmlns:xlink="http://www.w3.org/1999/xlink" version="1.1"><path d="M0 787L45.7 775.3C91.3 763.7 182.7 740.3 274.2 737.5C365.7 734.7 457.3 752.3 548.8 742.3C640.3 732.3 731.7 694.7 823 695.7C914.3 696.7 1005.7 736.3 1097 751.7C1188.3 767 1279.7 758 1371.2 733.8C1462.7 709.7 1554.3 670.3 1645.8 656.8C1737.3 643.3 1828.7 655.7 1874.3 661.8L1920 668L1920 1081L1874.3 1081C1828.7 1081 1737.3 1081 1645.8 1081C1554.3 1081 1462.7 1081 1371.2 1081C1279.7 1081 1188.3 1081 1097 1081C1005.7 1081 914.3 1081 823 1081C731.7 1081 640.3 1081 548.8 1081C457.3 1081 365.7 1081 274.2 1081C182.7 1081 91.3 1081 45.7 1081L0 1081Z" fill="#f3e7d5"></path><path d="M0 837L45.7 818.8C91.3 800.7 182.7 764.3 274.2 759.3C365.7 754.3 457.3 780.7 548.8 788C640.3 795.3 731.7 783.7 823 775.5C914.3 767.3 1005.7 762.7 1097 761C1188.3 759.3 1279.7 760.7 1371.2 753.2C1462.7 745.7 1554.3 729.3 1645.8 733.7C1737.3 738 1828.7 763 1874.3 775.5L1920 788L1920 1081L1874.3 1081C1828.7 1081 1737.3 1081 1645.8 1081C1554.3 1081 1462.7 1081 1371.2 1081C1279.7 1081 1188.3 1081 1097 1081C1005.7 1081 914.3 1081 823 1081C731.7 1081 640.3 1081 548.8 1081C457.3 1081 365.7 1081 274.2 1081C182.7 1081 91.3 1081 45.7 1081L0 1081Z" fill="#e9d4bb"></path><path d="M0 841L45.7 852.5C91.3 864 182.7 887 274.2 884C365.7 881 457.3 852 548.8 834.8C640.3 817.7 731.7 812.3 823 819.8C914.3 827.3 1005.7 847.7 1097 861.3C1188.3 875 1279.7 882 1371.2 882C1462.7 882 1554.3 875 1645.8 858C1737.3 841 1828.7 814 1874.3 800.5L1920 787L1920 1081L1874.3 1081C1828.7 1081 1737.3 1081 1645.8 1081C1554.3 1081 1462.7 1081 1371.2 1081C1279.7 1081 1188.3 1081 1097 1081C1005.7 1081 914.3 1081 823 1081C731.7 1081 640.3 1081 548.8 1081C457.3 1081 365.7 1081 274.2 1081C182.7 1081 91.3 1081 45.7 1081L0 1081Z" fill="#dfc1a2"></path><path d="M0 898L45.7 905.8C91.3 913.7 182.7 929.3 274.2 927.7C365.7 926 457.3 907 548.8 911.8C640.3 916.7 731.7 945.3 823 949C914.3 952.7 1005.7 931.3 1097 920.3C1188.3 909.3 1279.7 908.7 1371.2 904.7C1462.7 900.7 1554.3 893.3 1645.8 896.2C1737.3 899 1828.7 912 1874.3 918.5L1920 925L1920 1081L1874.3 1081C1828.7 1081 1737.3 1081 1645.8 1081C1554.3 1081 1462.7 1081 1371.2 1081C1279.7 1081 1188.3 1081 1097 1081C1005.7 1081 914.3 1081 823 1081C731.7 1081 640.3 1081 548.8 1081C457.3 1081 365.7 1081 274.2 1081C182.7 1081 91.3 1081 45.7 1081L0 1081Z" fill="#d5ae8a"></path><path d="M0 954L45.7 963.5C91.3 973 182.7 992 274.2 994.5C365.7 997 457.3 983 548.8 976.5C640.3 970 731.7 971 823 966.8C914.3 962.7 1005.7 953.3 1097 958C1188.3 962.7 1279.7 981.3 1371.2 995C1462.7 1008.7 1554.3 1017.3 1645.8 1019.7C1737.3 1022 1828.7 1018 1874.3 1016L1920 1014L1920 1081L1874.3 1081C1828.7 1081 1737.3 1081 1645.8 1081C1554.3 1081 1462.7 1081 1371.2 1081C1279.7 1081 1188.3 1081 1097 1081C1005.7 1081 914.3 1081 823 1081C731.7 1081 640.3 1081 548.8 1081C457.3 1081 365.7 1081 274.2 1081C182.7 1081 91.3 1081 45.7 1081L0 1081Z" fill="#cc9b73"></path></svg>